<svg xmlns="http://www.w3.org/2000/svg" version="1.1" xmlns:xlink="http://www.w3.org/1999/xlink" xmlns:svgjs="http://svgjs.dev/svgjs" width="200" height="200" viewBox="0 0 1000 1125"><g transform="matrix(1,0,0,1,0,0)"><svg viewBox="0 0 320 360" data-background-color="#010536" preserveAspectRatio="xMidYMid meet" height="1125" width="1000" xmlns="http://www.w3.org/2000/svg" xmlns:xlink="http://www.w3.org/1999/xlink"><g id="tight-bounds" transform="matrix(1,0,0,1,0,0)"><svg viewBox="0 0 320 360" height="360" width="320"><g><svg></svg></g><g><svg viewBox="0 0 320 360" height="360" width="320"><g><path xmlns="http://www.w3.org/2000/svg" d="M297.491 100.645c-12.426-21.51-112.674-79.355-137.491-79.355-24.817 0-125.028 57.845-137.491 79.355-11.591 20.02-11.591 138.726 0 158.746 12.463 21.474 112.674 79.319 137.491 79.319 24.817 0 125.064-57.845 137.491-79.355 11.591-20.02 11.591-138.69 0-158.71zM309.481 93.705c-14.461-24.998-119.469-86.295-149.481-86.295-30.012 0-135.02 61.297-149.481 86.295-14.025 24.199-14.025 148.391 0 172.59 14.461 24.998 119.469 86.295 149.481 86.295 30.012 0 135.02-61.297 149.481-86.259 14.025-24.235 14.025-148.427 0-172.626zM300.906 261.353c-12.753 22.055-115.472 81.317-140.906 81.318-25.434 0-128.153-59.298-140.906-81.354-11.881-20.529-11.881-142.178 0-162.707 12.753-22.019 115.472-81.281 140.906-81.281 25.434 0 128.153 59.298 140.906 81.318 11.881 20.529 11.881 142.178 0 162.706z" fill="#fbfbf8" fill-rule="nonzero" stroke="none" stroke-width="1" stroke-linecap="butt" stroke-linejoin="miter" stroke-miterlimit="10" stroke-dasharray="" stroke-dashoffset="0" font-family="none" font-weight="none" font-size="none" text-anchor="none" style="mix-blend-mode: normal" data-fill-palette-color="tertiary"></path></g><g transform="matrix(1,0,0,1,49.65217391304347,90)"><svg viewBox="0 0 220.69565217391306 180" height="180" width="220.69565217391306"><g><svg viewBox="0 0 220.69565217391306 180" height="180" width="220.69565217391306"><g><svg viewBox="0 0 220.69565217391306 180" height="180" width="220.69565217391306"><g><svg viewBox="0 0 220.69565217391306 180" height="180" width="220.69565217391306"><g id="textblocktransform"><svg viewBox="0 0 220.69565217391306 180" height="180" width="220.69565217391306" id="textblock"><g><svg viewBox="0 0 220.69565217391306 180" height="180" width="220.69565217391306"><g transform="matrix(1,0,0,1,0,0)"><svg width="220.69565217391306" viewBox="1.5 -34.5 42.29999923706055 34.5" height="180" data-palette-color="#010536"><path d="M34.05-5.85L34.05-18.85Q34.05-20.85 34.4-25.05L34.4-25.05 34.5-26.25 34-26.3Q32.85-22.05 32-19.55L32-19.55 25.35 0 18.7 0 11.7-19.55Q10.75-21.8 10-25.15L10-25.15 9.7-26.3 9.2-26.25Q9.65-21.8 9.65-18.85L9.65-18.85 9.65-5.7Q11.5-5 12.4-3.85L12.4-3.85 11.9 0 2.1 0 1.6-3.85Q2.5-5 4.35-5.7L4.35-5.7 4.35-28.8Q2.3-29.55 1.5-30.65L1.5-30.65 2-34.5 13.4-34.5 20.7-14.35Q22.1-11.05 22.5-8.3L22.5-8.3 22.65-7.45 23.35-7.45Q23.55-10.5 25.15-14.35L25.15-14.35 32.1-34.5 43.3-34.5 43.8-30.65Q43-29.55 40.95-28.8L40.95-28.8 40.95-5.9Q42.9-5.15 43.7-4.15L43.7-4.15 43.2 0 31.8 0 31.3-4.1Q32.1-5.1 34.05-5.85L34.05-5.85Z" opacity="1" transform="matrix(1,0,0,1,0,0)" fill="#010536" class="wordmark-text-0" data-fill-palette-color="quaternary" id="text-0"></path></svg></g></svg></g></svg></g></svg></g><g></g></svg></g></svg></g></svg></g></svg></g><defs></defs></svg><rect width="320" height="360" fill="none" stroke="none" visibility="hidden"></rect></g></svg></g></svg>