<svg xmlns="http://www.w3.org/2000/svg" version="1.1" xmlns:xlink="http://www.w3.org/1999/xlink" xmlns:svgjs="http://svgjs.dev/svgjs" width="1500" height="1500" viewBox="0 0 1500 1500"><rect width="1500" height="1500" fill="#ffffff"></rect><g transform="matrix(0.6666666666666666,0,0,0.6666666666666666,250.00000000000017,187.66666666666674)"><svg viewBox="0 0 320 360" data-background-color="#fdf8f1" preserveAspectRatio="xMidYMid meet" height="1687" width="1500" xmlns="http://www.w3.org/2000/svg" xmlns:xlink="http://www.w3.org/1999/xlink"><g id="tight-bounds" transform="matrix(1,0,0,1,0,0)"><svg viewBox="0 0 320 360" height="360" width="320"><g><svg></svg></g><g><svg viewBox="0 0 320 360" height="360" width="320"><g><path d="M20.961 227.22l3.726 4.658-1.863-6.056c-0.466-2.795-3.726 0.466-1.863 1.398M25.153 224.425c1.397 2.329 2.795 4.658 2.795 6.987 0 3.261 2.795 4.658 5.123 5.589-3.261-3.726-5.124-13.974-7.918-12.576M204.017 26.929c7.918 0 15.371-0.932 23.756 0.931 20.495 5.124 37.729 15.371 49.374 29.811l32.606 52.169c1.397 13.042 4.192 27.482 3.726 43.319 3.261 0 2.795-4.658 6.521-5.59-3.726 9.316-5.59 20.961-6.521 34.469-2.329-7.453 0-18.632 0.466-24.687-3.261 5.124-5.124 1.397-5.124-0.932 0.466-3.726-1.397-3.261-2.795-4.658-5.124-4.658-8.384-9.782-12.11-17.7 2.329-6.055 2.795-14.905-4.658-19.563-2.329-1.397-5.124-3.726-6.521-7.453-1.863-5.124-5.124-11.179-4.193-19.097 0.466-2.329-6.987 5.124-11.179 1.863-18.166-12.576-36.332-27.016-58.224-39.127-11.645 0-20.029-4.192-24.221-9.316-3.726-4.658-0.932-10.713 4.658-11.179 3.261 0 6.987-0.932 9.782 0.932 0.466-1.863 2.329-4.192 4.657-4.192M157.904 16.215l0.932 0.466c4.658 0.932 6.987 7.453 12.11 5.124 0 3.261 0.466 6.521-0.466 8.85-1.397 3.726-5.59 3.726-8.85 3.726-31.208-1.863-49.374 11.179-68.471 22.358-5.124 3.261-10.713 5.59-14.906 9.782-20.029 18.632-41.921 35.866-47.045 70.335l-4.192 38.195c-0.466 4.192-5.124 8.384-4.192 13.508l3.26 22.824c-3.261-3.261-5.124 0.932-4.192 2.795 0.466 1.397 2.329 6.055 5.124 1.863 3.726 6.987 7.453 20.495 12.576 26.55 15.837 18.632 36.332 35.4 53.101 52.169 4.192-0.932 7.453-0.932 8.384-3.727 1.397 2.795-1.397 5.59-3.726 6.056 7.453 4.658 15.837 8.85 27.016 9.781 14.44 0.932 27.948 3.261 40.524 6.522 6.521-1.863 13.042-2.795 20.029-3.261 2.329 0 3.726-3.726 6.521-4.658l0.466-4.658c2.795 4.192 2.329-1.397 0.466-4.192 3.261 2.795 4.192 5.124 5.589 6.987 0-1.397 3.726-6.521 3.727-0.466l0.931-6.055c1.397-0.932 1.863 5.124 3.261 0.931 1.397-4.192 4.192-0.932 6.987-2.329-0.932 1.863-0.466 5.59 2.794 3.261l3.727-3.261c2.329 5.59 6.055 3.261 7.918 2.329 20.495-13.042 40.99-28.413 60.553-43.784l-0.466 6.055 2.329-7.453c2.329 2.329 4.192 0.466 5.124-0.931 2.795-4.658 6.521-9.316 12.577-13.508-7.453 20.029-16.303 35.866-27.482 48.908l-4.658 5.59c0 3.261-0.932 7.453-4.658 7.918-1.863 0.466-5.59-0.932-8.384 1.863-1.397 1.863 3.261 5.59-0.466 2.795-3.261-2.329-6.521 0-10.248 0.932-2.795 0.932 1.863 3.726 2.795 5.589 0.932 1.863 1.863 3.726 1.398 6.056l-5.124-5.59c-6.055 3.261-9.782 9.316-14.906 13.974-2.329 1.863-1.397 5.124-1.397 7.918-3.261 0-6.987-0.932-8.85 0.932-1.397 1.863-0.932 4.658-0.932 7.453-4.658-0.466-5.124-7.453-9.315-6.056-4.192 0.932-8.85 1.397-12.577 3.727 2.795 5.59-4.658 2.329-3.726 3.26-6.987-4.192-13.042-7.453-20.495-4.658-15.837-5.124-35.4-2.795-49.84-0.931 0-2.329 0.466-4.658-0.466-5.124-0.932 2.329-3.726 1.397-3.26 1.397-8.85-6.055-17.7-9.782-27.016-14.905-8.384 0.932-16.303-3.261-18.632-5.59-6.521-6.055-13.974-2.795-20.029-4.192-13.042-3.261-17.7-16.769-19.098-26.084-0.932-4.658-4.658-6.521-6.055-6.056-6.055-19.563-15.371-37.263-22.824-55.429-1.863-4.658-1.397-9.316-1.397-14.44 2.329 0.932 4.658 0.466 4.192-2.794-2.329-15.371-7.918-27.016-13.974-38.195 3.261-15.837 3.726-34.469 11.179-48.443 6.521-12.576 18.632-19.098 27.016-29.811 2.795-3.726 2.795-8.85 5.59-12.11 9.316-9.316 18.632-19.098 28.879-27.482 4.658-3.726 10.247 0 17.234-1.397 2.329-8.384 11.645-15.837 20.495-13.508 3.726 0.932 11.179-8.85 13.508-9.782 3.726-1.397 1.863 3.726 1.863 6.987 8.85-6.987 20.961-10.713 32.14-14.906" fill="#000000" fill-rule="nonzero" stroke="none" stroke-width="1" stroke-linecap="butt" stroke-linejoin="miter" stroke-miterlimit="10" stroke-dasharray="" stroke-dashoffset="0" font-family="none" font-weight="none" font-size="none" text-anchor="none" style="mix-blend-mode: normal" data-fill-palette-color="tertiary"></path></g><g transform="matrix(1,0,0,1,110.37003030302867,90)"><svg viewBox="0 0 99.25993939394266 180" height="180" width="99.25993939394266"><g><svg viewBox="0 0 99.25993939394266 180" height="180" width="99.25993939394266"><g><svg viewBox="0 0 174.00495174142742 315.54413094240005" height="180" width="99.25993939394266"><g><svg viewBox="0 0 174.00495174142742 315.54413094240005" height="315.54413094240005" width="174.00495174142742"><g id="textblocktransform"><svg viewBox="0 0 174.00495174142742 315.54413094240005" height="315.54413094240005" width="174.00495174142742" id="textblock"><g><svg viewBox="0 0 174.00495174142742 178.88760000000002" height="178.88760000000002" width="174.00495174142742"><g transform="matrix(1,0,0,1,0,0)"><svg width="174.00495174142742" viewBox="1.59 -37.84 37.3 38.330000000000005" height="178.88760000000002" data-palette-color="#fa4238"><path d="M6.2-0.17L6.2-0.17Q5.3 0.49 4.14 0.49 2.98 0.49 2.28-0.11 1.59-0.71 1.59-1.49 1.59-2.27 1.83-2.64L1.83-2.64Q2.54-2.22 4.06-2.22 5.59-2.22 6.59-4.3L6.59-4.3 6.59-16.02Q6.59-17.16 6.1-17.72L6.1-17.72Q5.37-18.6 3.61-19.46L3.61-19.46Q5.4-20.31 5.86-20.87L5.86-20.87Q6.59-21.8 6.59-22.95L6.59-22.95 6.59-33.25Q5.76-35.13 3.59-35.13L3.59-35.13Q2.76-35.13 2.22-34.72L2.22-34.72Q1.95-35.08 1.95-35.57 1.95-36.06 2.2-36.47 2.44-36.89 2.83-37.21L2.83-37.21Q3.69-37.84 5.14-37.84 6.59-37.84 7.62-37.04L7.62-37.04Q8.3-37.84 9.5-37.84 10.69-37.84 11.43-37.01L11.43-37.01Q12.13-37.84 12.88-37.84 13.62-37.84 14-37.7 14.38-37.55 14.65-37.3L14.65-37.3Q15.04-36.99 15.53-36.06L15.53-36.06 30.66-8.79 30.66-16.24Q30.66-17.31 30.2-17.82L30.2-17.82Q29.49-18.58 27.69-19.46L27.69-19.46Q29.37-20.29 29.86-20.8L29.86-20.8Q30.66-21.66 30.66-22.71L30.66-22.71 30.66-32.93Q30.1-33.96 29.28-34.55 28.47-35.13 27.43-35.13 26.39-35.13 25.68-34.72L25.68-34.72Q25.42-35.16 25.42-35.93 25.42-36.69 26.17-37.27 26.93-37.84 28.15-37.84 29.37-37.84 30.32-37.21L30.32-37.21Q31.18-37.84 32.29-37.84 33.4-37.84 34.25-37.18L34.25-37.18Q35.21-37.84 36.35-37.84 37.5-37.84 38.2-37.24 38.89-36.65 38.89-35.86 38.89-35.08 38.65-34.72L38.65-34.72Q37.94-35.13 36.38-35.13 34.81-35.13 33.89-33.03L33.89-33.03 33.89-22.71Q33.89-21.66 34.33-21.17L34.33-21.17Q35.06-20.36 36.87-19.46L36.87-19.46Q34.89-18.38 34.5-17.97L34.5-17.97Q33.89-17.31 33.89-16.24L33.89-16.24 34.33-3.83Q35.21-2.22 37.08-2.22L37.08-2.22Q37.92-2.22 38.45-2.64L38.45-2.64Q38.72-2.27 38.72-1.78 38.72-1.29 38.48-0.88 38.23-0.46 37.84-0.15L37.84-0.15Q36.99 0.49 35.77 0.49 34.55 0.49 33.57 0L33.57 0Q31.64 1.1 29.64-0.17L29.64-0.17Q28.86 0.49 28.15 0.49 27.44 0.49 27.1 0.37 26.76 0.24 26.46-0.07L26.46-0.07Q26-0.54 25.02-2.39L25.02-2.39 10.01-28.27 10.01-4.3Q11.01-2.22 12.55-2.22 14.09-2.22 14.79-2.64L14.79-2.64Q15.06-2.2 15.06-1.43 15.06-0.66 14.31-0.09 13.55 0.49 12.35 0.49 11.16 0.49 10.16-0.12L10.16-0.12Q9.28 0.49 8.14 0.49 7.01 0.49 6.2-0.17ZM15.16-24.24L25.29-6.47Q25.46-6.69 25.46-7.17 25.46-7.64 25.33-8.24 25.2-8.84 24.95-9.52L24.95-9.52Q24.44-10.89 23.61-12.45L23.61-12.45 13.26-30.52Q13.09-30.25 13.09-29.54L13.09-29.54Q13.09-28.03 15.16-24.24L15.16-24.24Z" opacity="1" transform="matrix(1,0,0,1,0,0)" fill="#000000" class="wordmark-text-0" data-fill-palette-color="primary" id="text-0"></path></svg></g></svg></g><g transform="matrix(1,0,0,1,0,204.99159414240003)"><svg viewBox="0 0 174.00495174142742 110.55253680000001" height="110.55253680000001" width="174.00495174142742"><g transform="matrix(1,0,0,1,0,0)"><svg width="174.00495174142742" viewBox="3.5 -35.6 33.15 36.2" height="110.55253680000001" data-palette-color="#fa4238"><path d="M27.25 0.6L27.25 0.6Q24.45 0.6 22.33-0.68 20.2-1.95 19-4.15 17.8-6.35 17.8-9.1L17.8-9.1 17.8-26.55Q17.8-27.9 17.15-29 16.5-30.1 15.4-30.75 14.3-31.4 13-31.4L13-31.4Q11.7-31.4 10.63-30.75 9.55-30.1 8.93-29 8.3-27.9 8.3-26.55L8.3-26.55 8.3 0 3.5 0 3.5-25.9Q3.5-28.65 4.7-30.85 5.9-33.05 8.05-34.33 10.2-35.6 13-35.6L13-35.6Q15.85-35.6 18-34.33 20.15-33.05 21.35-30.85 22.55-28.65 22.55-25.9L22.55-25.9 22.55-8.45Q22.55-7.1 23.2-6 23.85-4.9 24.93-4.25 26-3.6 27.25-3.6L27.25-3.6Q28.5-3.6 29.55-4.25 30.6-4.9 31.23-6 31.85-7.1 31.85-8.45L31.85-8.45 31.85-35 36.65-35 36.65-9.1Q36.65-6.35 35.45-4.15 34.25-1.95 32.15-0.68 30.05 0.6 27.25 0.6Z" opacity="1" transform="matrix(1,0,0,1,0,0)" fill="#000000" class="slogan-text-1" data-fill-palette-color="secondary" id="text-1"></path></svg></g></svg></g></svg></g></svg></g><g></g></svg></g></svg></g></svg></g></svg></g><defs></defs></svg><rect width="320" height="360" fill="none" stroke="none" visibility="hidden"></rect></g></svg></g></svg>